<svg width="17" height="12" viewBox="0 0 17 12" fill="none" xmlns="http://www.w3.org/2000/svg">
<path d="M0.585396 0.58656C-0.167319 1.38562 -0.197467 2.70443 0.514219 3.54484L7.10141 11.3234L7.10311 11.3254C7.11697 11.3419 7.13112 11.3583 7.14556 11.3744C7.7296 12.0285 8.61259 12.1747 9.33112 11.7892C9.52244 11.6866 9.69988 11.5475 9.8543 11.3746C9.8691 11.358 9.88382 11.341 9.89741 11.3248L9.8992 11.3226L13.1925 7.43374L16.4858 3.54484C17.1975 2.70443 17.1673 1.38562 16.4146 0.58656C15.6486 -0.226663 14.4304 -0.188873 13.7063 0.66625L8.5 6.81416L3.29371 0.66625C2.56956 -0.188872 1.35145 -0.226663 0.585396 0.58656Z" fill="white"/>
</svg>
