<svg width="75" height="75" viewBox="0 0 75 75" fill="none" xmlns="http://www.w3.org/2000/svg">
<path d="M66.8136 0C62.3772 0 58.7762 3.14941 58.7762 7.03125C58.7762 10.9131 62.5279 14.0625 66.8136 14.0625C71.4007 14.0625 75 10.9131 75 7.03125C75 3.14941 71.4007 0 66.8136 0ZM66.8136 65.625C65.3486 65.625 64.135 66.687 64.135 67.9688C64.135 69.2505 63.0636 70.3125 61.4565 70.3125H45.3834C43.9184 70.3125 42.7048 71.3745 42.7048 72.6562C42.7048 73.938 43.9187 75 45.3834 75H61.4565C65.8929 75 69.4939 71.8506 69.4939 67.9688C69.4922 66.6797 68.4208 65.625 66.8136 65.625ZM21.6127 66.1963C19.7143 66.1963 19.7394 67.5674 17.8209 67.5674C17.1389 67.5674 16.4543 67.3453 15.9442 66.8899L4.56363 56.9451C4.05085 56.4873 3.36413 56.2584 2.67691 56.2584C1.99019 56.2584 1.30348 56.4872 0.790195 56.9451C0.261512 57.3926 0 57.9932 0 58.5938C0 59.1943 0.261496 59.7954 0.784821 60.2446L12.1487 70.2026C13.7183 71.5759 15.7631 72.2534 17.8339 72.2534C20.0488 72.2534 24.291 70.9362 24.291 68.5386C24.2913 66.8994 22.6339 66.1963 21.6127 66.1963ZM31.3216 43.0115C29.9795 41.8299 27.9382 41.5611 26.5931 42.7393L13.4264 54.2725C12.3799 55.188 11.8567 56.3877 11.8567 57.5859C11.8567 61.2114 15.6352 62.2734 17.1938 62.2734C18.5751 62.2734 19.956 61.8157 20.9823 60.9001L31.3249 51.8395C33.9938 49.5014 33.9923 45.3476 31.3216 43.0115ZM21.2779 23.4375H34.8335C36.1809 23.4375 36.769 25.1401 35.7087 25.9717C32.163 28.6143 31.9738 32.0845 31.9738 33.0981C31.9738 35.5781 33.1122 37.9644 35.101 39.7046L45.4702 48.7765C47.2066 50.2956 48.2026 52.4904 48.2026 54.7974V63.2812C48.2026 65.8813 50.5882 67.9688 53.5597 67.9688C56.5313 67.9688 58.9169 65.8813 58.9169 63.2812V50.1885C58.9169 48.3398 58.0587 46.5264 56.5513 45.2256L46.5917 36.5123C46.4572 36.3946 46.4961 36.2429 46.6306 36.1252L60.4018 24.0579C61.6914 22.9296 62.3705 21.4402 62.3705 19.9197C62.3705 16.6912 59.3806 14.0647 55.6724 14.0647L21.2779 14.0625C18.4487 14.0625 16.0647 16.1426 16.0647 18.75C16.0647 21.3574 18.4487 23.4375 21.2779 23.4375Z" fill="#008AFF"/>
</svg>
