<svg width="75" height="75" viewBox="0 0 75 75" fill="none" xmlns="http://www.w3.org/2000/svg">
<path d="M72.4399 69.3925H28.5408V2.80387C28.5408 1.25548 27.3946 0 25.981 0C22.9673 0 15.8287 4.67893 15.8287 12.0561C15.8287 16.153 18.4936 19.486 21.7696 19.486C22.3429 19.486 22.8951 19.3978 23.4211 19.2271V69.3925H13.5232V2.80387C13.5232 1.25548 12.377 0 10.9633 0C7.94972 0 0.810856 4.67893 0.810856 12.0561C0.810856 16.153 3.476 19.486 6.752 19.486C7.32523 19.486 7.8775 19.3978 8.40351 19.2271V69.3925H2.55984C1.14621 69.3925 0 70.648 0 72.1961C0 73.7445 1.14621 75 2.55984 75H72.4402C73.8538 75 75 73.7445 75 72.1961C74.9997 70.648 73.8535 69.3925 72.4399 69.3925ZM23.4133 11.3012C23.0199 12.8427 22.3595 13.8786 21.7696 13.8786C21.5312 13.8786 20.9482 13.2402 20.9482 12.0561C20.9482 10.0615 22.1522 8.36238 23.4211 7.20814V11.2705C23.4186 11.2808 23.4161 11.291 23.4133 11.3012ZM8.39593 11.3012C8.0025 12.8427 7.34215 13.8786 6.75225 13.8786C6.51387 13.8786 5.93054 13.2402 5.93054 12.0561C5.93054 10.0615 7.13482 8.3621 8.40376 7.20814V11.2705C8.40098 11.2808 8.39846 11.291 8.39593 11.3012Z" fill="#008AFF"/>
<path d="M45.3066 5.11674C45.3066 2.37262 43.2682 0.140198 40.7631 0.140198C38.2578 0.140198 36.2197 2.37289 36.2197 5.11674V65.6073H45.3068V5.11674H45.3066ZM41.9149 37.1495H39.6111C38.6215 37.1495 37.8192 36.2708 37.8192 35.1868C37.8192 34.1028 38.6215 33.224 39.6111 33.224H41.9149C42.9045 33.224 43.7068 34.1028 43.7068 35.1868C43.7068 36.2708 42.9045 37.1495 41.9149 37.1495ZM41.9149 27.4766H39.6111C38.6215 27.4766 37.8192 26.5979 37.8192 25.5139C37.8192 24.4299 38.6215 23.5511 39.6111 23.5511H41.9149C42.9045 23.5511 43.7068 24.4299 43.7068 25.5139C43.7068 26.5979 42.9045 27.4766 41.9149 27.4766Z" fill="#008AFF"/>
<path d="M66.4247 5.11674C66.4247 2.37262 64.3864 0.140198 61.8813 0.140198C59.376 0.140198 57.3379 2.37289 57.3379 5.11674V65.6073H66.425V5.11674H66.4247ZM63.0331 37.1495H60.7293C59.7396 37.1495 58.9374 36.2708 58.9374 35.1868C58.9374 34.1028 59.7396 33.224 60.7293 33.224H63.0331C64.0227 33.224 64.825 34.1028 64.825 35.1868C64.825 36.2708 64.0227 37.1495 63.0331 37.1495ZM63.0331 27.4766H60.7293C59.7396 27.4766 58.9374 26.5979 58.9374 25.5139C58.9374 24.4299 59.7396 23.5511 60.7293 23.5511H63.0331C64.0227 23.5511 64.825 24.4299 64.825 25.5139C64.825 26.5979 64.0227 27.4766 63.0331 27.4766Z" fill="#008AFF"/>
</svg>
