<svg width="75" height="75" viewBox="0 0 75 75" fill="none" xmlns="http://www.w3.org/2000/svg">
<path d="M34.4034 41.1245C34.721 40.4776 34.721 39.72 34.4034 39.073L16.2594 2.11834C15.6873 0.953178 14.2727 0.481117 13.1155 1.06923C11.9808 1.64597 11.5198 3.02732 12.0808 4.16993L30.225 41.1246C31.0771 42.8601 33.5513 42.8601 34.4034 41.1245Z" fill="#008AFF"/>
<path d="M69.5877 60.8402H46.3691C45.5866 60.8402 44.8723 60.3952 44.5274 59.6928C43.7763 58.1629 41.5954 58.1629 40.8442 59.6928L40.5966 60.1971C40.279 60.844 40.279 61.6017 40.5966 62.2486L44.8343 70.8795C45.9874 73.2286 48.8032 74.9999 51.3841 74.9999H69.5877C72.572 74.9999 75 72.5297 75 69.4934V66.3468C75 63.3103 72.572 60.8402 69.5877 60.8402Z" fill="#008AFF"/>
<path d="M61.8843 1.06924C60.7272 0.481118 59.3126 0.953181 58.7405 2.11835L32.106 56.3661C30.7613 59.1048 27.9759 60.8403 24.9248 60.8403H5.41237C2.42799 60.8403 0 63.3105 0 66.3468V69.4934C0 72.5298 2.42799 75 5.41237 75H23.6159C26.1968 75 29.0126 73.2286 30.1658 70.8797L62.919 4.16993C63.4801 3.02731 63.0191 1.64597 61.8843 1.06924Z" fill="#008AFF"/>
</svg>
