<svg width="75" height="75" viewBox="0 0 75 75" fill="none" xmlns="http://www.w3.org/2000/svg">
<path d="M73.6819 1.5321C71.924 -0.510699 69.0643 -0.510699 67.3063 1.5321L41.7976 31.1792C40.0767 31.1587 38.4337 31.9308 37.1985 33.3665L14.5146 59.7308C14.1351 60.1722 13.5173 60.172 13.1377 59.7308C12.9545 59.5179 12.8537 59.2338 12.8537 58.9308C12.8537 58.6278 12.9545 58.3435 13.1377 58.1306C14.3521 56.7192 15.0208 54.8426 15.0208 52.8467C15.0208 50.8508 14.3521 48.9741 13.1377 47.5627C10.6309 44.6494 6.55207 44.6493 4.045 47.5627C-1.34833 53.8311 -1.34833 64.0303 4.045 70.2988C6.74167 73.433 10.2838 75 13.8262 75C17.3683 75 20.9106 73.433 23.6073 70.2988L46.2913 43.9345C47.5266 42.4988 48.1912 40.5885 48.1733 38.5891L73.6819 8.94183C75.4394 6.89886 75.4394 3.57489 73.6819 1.5321ZM44.1784 41.4785L21.4944 67.8428C17.2661 72.7573 10.3863 72.7572 6.15808 67.8428C1.92983 62.9287 1.92983 54.9325 6.15808 50.0183C6.82907 49.2384 7.71013 48.8488 8.59149 48.8488C9.47255 48.8488 10.3541 49.2388 11.0249 50.0183C11.675 50.7737 12.033 51.778 12.033 52.8465C12.033 53.915 11.675 54.9193 11.0249 55.6747C10.2774 56.5435 9.86564 57.7 9.86564 58.9306C9.86564 60.1613 10.2774 61.3177 11.0249 62.1865C12.5696 63.9817 15.0833 63.9815 16.6277 62.1865L39.3119 35.8222C40.0707 34.9403 41.1184 34.5256 42.1864 34.685C42.9471 34.7984 43.6359 35.1917 44.1786 35.8222C44.7212 36.4529 45.0595 37.2534 45.157 38.1373C45.157 38.1375 45.157 38.1375 45.157 38.1375C45.2939 39.3789 44.9371 40.5965 44.1784 41.4785ZM71.5688 6.4861L47.2389 34.7631L47.2387 34.7647C46.9749 34.2622 46.6584 33.7933 46.291 33.3665C45.9239 32.9397 45.5204 32.572 45.0882 32.2654L45.0894 32.265L69.4194 3.98783C69.7064 3.65425 70.0882 3.47053 70.4941 3.47053C70.9001 3.47053 71.2818 3.65425 71.5688 3.98783C72.1617 4.67669 72.1617 5.79724 71.5688 6.4861Z" fill="#008AFF"/>
<path d="M39.016 40.4633L37.2076 42.5651C36.6242 43.2432 36.6242 44.3428 37.2076 45.021C37.4994 45.3602 37.8817 45.5296 38.2641 45.5296C38.6464 45.5296 39.0287 45.3602 39.3205 45.021L41.129 42.9192C41.7124 42.2411 41.7124 41.1416 41.129 40.4633C40.5455 39.785 39.5996 39.785 39.016 40.4633Z" fill="#008AFF"/>
<path d="M33.4403 46.9436L24.0968 57.8031C23.5133 58.4812 23.5133 59.5807 24.0968 60.259C24.3886 60.5981 24.7709 60.7676 25.1532 60.7676C25.5356 60.7676 25.918 60.5981 26.2097 60.259L35.5532 49.3995C36.1367 48.7214 36.1367 47.6219 35.5532 46.9436C34.9701 46.2655 34.024 46.2655 33.4403 46.9436Z" fill="#008AFF"/>
<path d="M19.2009 46.4052C22.9746 46.4052 26.0448 42.8369 26.0448 38.4509C26.0448 34.0649 22.9746 30.4966 19.2009 30.4966C15.4271 30.4966 12.3569 34.0649 12.3569 38.4509C12.3569 42.8369 15.4268 46.4052 19.2009 46.4052ZM19.2009 33.9695C21.3269 33.9695 23.0566 35.9799 23.0566 38.4509C23.0566 40.9219 21.3269 42.9322 19.2009 42.9322C17.0748 42.9322 15.3451 40.9219 15.3451 38.4509C15.3451 35.9799 17.0746 33.9695 19.2009 33.9695Z" fill="#008AFF"/>
</svg>
