<svg width="23" height="23" viewBox="0 0 23 23" fill="none" xmlns="http://www.w3.org/2000/svg">
<path d="M11.5 0C5.14871 0 0 5.14871 0 11.5C0 17.8513 5.14871 23 11.5 23C17.8513 23 23 17.8513 23 11.5C23 5.14871 17.8513 0 11.5 0ZM16.8304 7.82093C16.6574 9.63937 15.9085 14.0522 15.5274 16.0889C15.3662 16.9506 15.0488 17.2396 14.7415 17.2679C14.0738 17.3293 13.5666 16.8265 12.9197 16.4025C11.9076 15.739 11.3358 15.326 10.3533 14.6786C9.2179 13.9304 9.95395 13.5193 10.601 12.8469C10.7704 12.6711 13.7128 9.99466 13.7698 9.75186C13.7769 9.72149 13.7837 9.60811 13.7163 9.54857C13.6488 9.48903 13.5498 9.5092 13.4781 9.52539C13.3766 9.54845 11.7597 10.6172 8.62736 12.7316C8.16845 13.0467 7.75275 13.2003 7.38026 13.1922C6.96965 13.1834 6.17981 12.9601 5.59262 12.7692C4.87243 12.5351 4.30003 12.4113 4.34988 12.0137C4.37584 11.8066 4.66102 11.5949 5.20542 11.3785C8.55792 9.91784 10.7934 8.95487 11.912 8.48955C15.1056 7.16116 15.7692 6.93042 16.2018 6.92272C16.2969 6.92114 16.5096 6.9447 16.6474 7.0565C16.7391 7.13614 16.7975 7.24728 16.8111 7.36793C16.8344 7.51773 16.8409 7.66968 16.8304 7.82093V7.82093Z" fill="white"/>
</svg>
