<svg width="23" height="24" viewBox="0 0 23 24" fill="none" xmlns="http://www.w3.org/2000/svg">
<path d="M11.5 0.5C5.14871 0.5 0 5.64871 0 12C0 18.3513 5.14871 23.5 11.5 23.5C17.8513 23.5 23 18.3513 23 12C23 5.64871 17.8513 0.5 11.5 0.5ZM16.8304 8.32093C16.6574 10.1394 15.9085 14.5522 15.5274 16.5889C15.3662 17.4506 15.0488 17.7396 14.7415 17.7679C14.0738 17.8293 13.5666 17.3265 12.9197 16.9025C11.9076 16.239 11.3358 15.826 10.3533 15.1786C9.2179 14.4304 9.95395 14.0193 10.601 13.3469C10.7704 13.1711 13.7128 10.4947 13.7698 10.2519C13.7769 10.2215 13.7837 10.1081 13.7163 10.0486C13.6488 9.98903 13.5498 10.0092 13.4781 10.0254C13.3766 10.0484 11.7597 11.1172 8.62736 13.2316C8.16845 13.5467 7.75275 13.7003 7.38026 13.6922C6.96965 13.6834 6.17981 13.4601 5.59262 13.2692C4.87243 13.0351 4.30003 12.9113 4.34988 12.5137C4.37584 12.3066 4.66102 12.0949 5.20542 11.8785C8.55792 10.4178 10.7934 9.45487 11.912 8.98955C15.1056 7.66116 15.7692 7.43042 16.2018 7.42272C16.2969 7.42114 16.5096 7.4447 16.6474 7.5565C16.7391 7.63614 16.7975 7.74728 16.8111 7.86793C16.8344 8.01773 16.8409 8.16968 16.8304 8.32093V8.32093Z" fill="#0A75ED"/>
</svg>
